<?xml version="1.0" encoding="UTF-8"?>
<svg xmlns="http://www.w3.org/2000/svg"
     width="1000"
     height="1000"
     viewBox="-50 -500 1000 1000">
   <line x1="500"
         y1="0"
         x2="0"
         y2="0"
         stroke="black"
         stroke-width="5"/>
   <line x1="1"
         y1="0"
         x2="1"
         y2="-400"
         stroke="black"
         stroke-width="5"/>
   <text x="-25" y="-0">0</text>
   <line x1="500"
         y1="-0"
         x2="0"
         y2="-0"
         stroke="black"
         stroke-width="2"/>
   <text x="-25" y="-100">5</text>
   <line x1="500"
         y1="-100"
         x2="0"
         y2="-100"
         stroke="black"
         stroke-width="2"/>
   <text x="-25" y="-200">10</text>
   <line x1="500"
         y1="-200"
         x2="0"
         y2="-200"
         stroke="black"
         stroke-width="2"/>
   <text x="-25" y="-300">15</text>
   <line x1="500"
         y1="-300"
         x2="0"
         y2="-300"
         stroke="black"
         stroke-width="2"/>
   <text x="-25" y="-400">20</text>
   <line x1="500"
         y1="-400"
         x2="0"
         y2="-400"
         stroke="black"
         stroke-width="2"/>
   <text x="-25" y="-500">25</text>
   <line x1="500"
         y1="-500"
         x2="0"
         y2="-500"
         stroke="black"
         stroke-width="2"/>
   <rect width="100" height="18" x="0" y="-18"/>
   <rect width="100" height="8" x="0" y="-8"/>
   <rect width="100" height="6" x="0" y="-6"/>
   <rect width="100" height="5" x="0" y="-5"/>
   <rect width="100" height="6" x="0" y="-6"/>
   <rect width="100" height="3" x="0" y="-3"/>
   <rect width="100" height="2" x="0" y="-2"/>
</svg>
