<?xml version="1.0" encoding="UTF-8"?>
<svg xmlns="http://www.w3.org/2000/svg"
     width="1000"
     height="1000"
     viewBox="-150 -400 1000 600">
   <line x1="1000"
         y1="0"
         x2="0"
         y2="0"
         stroke="black"
         stroke-width="5"/>
   <text x="400" y="100">Themes</text>
   <line x1="1"
         y1="0"
         x2="1"
         y2="-100"
         stroke="black"
         stroke-width="5"/>
   <text x="-125" y="-200">Times Appeared</text>
   <text x="-25" y="-0">0</text>
   <line x1="1000"
         y1="-0"
         x2="0"
         y2="-0"
         stroke="black"
         stroke-width="2"/>
   <text x="-25" y="-80">4</text>
   <line x1="1000"
         y1="-80"
         x2="0"
         y2="-80"
         stroke="black"
         stroke-width="2"/>
   <text x="-25" y="-160">8</text>
   <line x1="1000"
         y1="-160"
         x2="0"
         y2="-160"
         stroke="black"
         stroke-width="2"/>
   <text x="-25" y="-240">12</text>
   <line x1="1000"
         y1="-240"
         x2="0"
         y2="-240"
         stroke="black"
         stroke-width="2"/>
   <text x="-25" y="-320">16</text>
   <line x1="1000"
         y1="-320"
         x2="0"
         y2="-320"
         stroke="black"
         stroke-width="2"/>
   <text x="-25" y="-400">20</text>
   <line x1="1000"
         y1="-400"
         x2="0"
         y2="-400"
         stroke="black"
         stroke-width="2"/>
   <rect width="100" height="60" x="0" y="-60" fill="blue"/>
   <rect width="100" height="40" x="120" y="-40" fill="blue"/>
   <rect width="100" height="80" x="240" y="-80" fill="blue"/>
   <rect width="100" height="60" x="360" y="-60" fill="blue"/>
   <rect width="100" height="40" x="480" y="-40" fill="blue"/>
   <rect width="100" height="40" x="600" y="-40" fill="blue"/>
   <text x="0" y="25" fill="#ffd1dc">Patriarchy</text>
   <text x="140" y="25" fill="#fdfd96">Marriage</text>
   <text x="250" y="25" fill="#d3d3d3">Alone/Isolation</text>
   <text x="380" y="25" fill="#b3ffb3">Autonomy</text>
   <text x="500" y="25" fill="#cdecff">Family</text>
   <text x="620" y="25" fill="#E64747">Violence</text>
   <text x="740" y="25" fill="#e0bbe4">Motherhood</text>
</svg>
